<?xml version="1.0" encoding="UTF-8" standalone="no"?>
<!-- Created with Inkscape (http://www.inkscape.org/) -->

<svg
   width="179.87445mm"
   height="191.65584mm"
   viewBox="0 0 179.87445 191.65584"
   version="1.1"
   id="svg1"
   xml:space="preserve"
   xmlns="http://www.w3.org/2000/svg"
   xmlns:svg="http://www.w3.org/2000/svg"><defs
     id="defs1" /><g
     id="layer1"
     transform="translate(-249.08831,-50.453068)"><path
       d="m 333.80526,86.996293 a 53.091979,53.091979 0 0 0 -28.71479,-8.38454 53.245123,53.245123 0 0 0 -17.7756,3.03546 4.1020897,4.1020897 0 0 0 -2.73469,3.8669 v 77.939647 a 4.1020897,4.1020897 0 0 0 5.46938,3.8669 45.051883,45.051883 0 0 1 15.04091,-2.56519 c 10.91169,0 20.90989,3.8669 28.71479,10.31551 z m 8.20407,88.074687 a 44.926086,44.926086 0 0 1 28.71458,-10.31551 c 5.28354,0 10.33742,0.9075 15.04111,2.57077 a 4.1020897,4.1020897 0 0 0 5.46939,-3.87248 V 85.514113 a 4.1020897,4.1020897 0 0 0 -2.73469,-3.8669 53.245123,53.245123 0 0 0 -17.77581,-3.03546 53.091979,53.091979 0 0 0 -28.71458,8.38454 z"
       id="path1-5"
       style="fill:#1a3763;fill-opacity:1;stroke-width:5.46945" /><g
       id="g39"
       transform="translate(71.881062,31.649125)"
       style="fill:#1c9cf0;fill-opacity:1"><path
         style="fill:#1c9cf0;fill-opacity:1"
         d="m 324.3592,32.495916 c -0.55549,-0.591291 -0.57529,-0.817345 -0.57529,-6.568462 0,-7.811959 -0.71264,-7.106672 7.18083,-7.106672 7.81376,0 7.10667,-0.717145 7.10667,7.207745 v 5.983014 l -0.69714,0.54837 c -0.6577,0.517353 -1.02923,0.54837 -6.56846,0.54837 -5.79512,0 -5.87879,-0.0079 -6.44661,-0.612365 z"
         id="path37-1" /><path
         style="fill:#1c9cf0;fill-opacity:1"
         d="m 307.55068,41.455289 -0.7001,-0.648824 v -5.024963 c 0,-4.928918 0.0122,-5.039152 0.63794,-5.767321 l 0.63795,-0.742358 4.42259,-0.08439 c 3.03002,-0.05782 4.66532,0.01615 5.19343,0.234902 1.45295,0.601831 1.54351,0.970206 1.54351,6.27871 v 4.856272 l -0.7734,0.773398 -0.7734,0.773397 h -4.74421 c -4.66915,0 -4.7553,-0.01027 -5.44431,-0.648825 z"
         id="path38-5" /><path
         style="fill:#1c9cf0;fill-opacity:1"
         d="m 327.48808,49.247864 c -0.47201,-0.472014 -0.52917,-0.881945 -0.52917,-3.795451 0,-4.296853 -0.17079,-4.142049 4.5699,-4.142049 4.54717,0 4.42594,-0.115956 4.42594,4.233333 0,4.34382 0.11433,4.233333 -4.38063,4.233333 -3.20409,0 -3.60936,-0.05248 -4.08604,-0.529166 z"
         id="path39-9" /></g><g
       id="g2"
       transform="translate(26.821292,14.394888)"><path
         style="fill:#1a3763;fill-opacity:1"
         d="m 312.49401,184.88806 v -16.1631 l 6.54843,0.002 c 8.63139,0.003 10.80192,0.33068 14.41148,2.1781 3.66586,1.87622 6.38858,5.40988 7.51705,9.75593 0.53475,2.05945 0.5957,6.40873 0.11823,8.43689 -1.00102,4.25206 -3.96636,8.05086 -7.71264,9.88041 -3.52625,1.72208 -4.27343,1.83464 -13.0112,1.95997 l -7.87135,0.11292 z m 14.34062,9.73289 c 3.2376,-0.68755 5.29848,-2.25089 6.69668,-5.07996 2.22024,-4.49235 1.03607,-10.07872 -2.6781,-12.63414 -2.07087,-1.42479 -3.86294,-1.83189 -8.06403,-1.83189 h -3.68059 v 9.92187 9.92187 h 3.16198 c 1.73908,0 3.79291,-0.13398 4.56406,-0.29775 z"
         id="path19-1" /><path
         style="fill:#1a3763;fill-opacity:1"
         d="m 222.33521,184.93068 0.0682,-16.07343 6.61458,-0.0736 c 3.64999,-0.0406 7.41234,0.049 8.39452,0.19991 3.94603,0.60625 6.42753,2.20721 7.95708,5.1336 0.8256,1.57957 0.84632,1.70342 0.84632,5.0588 0,3.28108 -0.0358,3.51035 -0.77756,4.97528 -1.24695,2.46275 -3.6309,4.28671 -6.62022,5.06512 -1.10356,0.28737 -2.83346,0.41064 -5.76269,0.41064 h -4.18574 l 0.18166,5.68854 0.18167,5.68854 h -3.483 -3.48301 z m 14.90399,-1.66701 c 2.75519,-1.3998 3.35428,-5.27397 1.13191,-7.31988 -1.03689,-0.95456 -2.72243,-1.38168 -6.1824,-1.56665 l -3.26115,-0.17434 -0.0299,4.9649 -0.0299,4.9649 3.53379,-0.10326 c 3.12859,-0.0914 3.68329,-0.17922 4.83757,-0.76567 z"
         id="path18-2" /><path
         style="fill:#1a3763;fill-opacity:1"
         d="m 342.65743,201.07027 c 0.001,-0.24889 1.61269,-4.63282 7.39423,-20.1149 l 4.57215,-12.24354 4.12928,0.0727 4.12927,0.0727 0.89491,2.38125 c 0.49219,1.30968 3.13611,8.3939 5.87537,15.7427 2.73925,7.34881 5.06128,13.56982 5.16005,13.82448 0.16561,0.42698 -0.0985,0.46302 -3.3923,0.46302 h -3.57189 l -1.21891,-3.32874 c -0.67041,-1.83081 -1.21892,-3.43816 -1.21892,-3.57188 0,-0.1414 -2.81245,-0.24313 -6.72185,-0.24313 h -6.72185 l -0.77912,2.18282 c -0.42851,1.20054 -0.99908,2.80789 -1.26791,3.57187 l -0.4888,1.38906 h -3.38732 c -1.86302,0 -3.3869,-0.0893 -3.38639,-0.19843 z m 19.72989,-14.81667 c -0.4686,-1.27331 -1.49632,-4.18505 -2.28383,-6.47053 -0.7875,-2.28548 -1.50857,-4.01189 -1.60237,-3.83646 -0.0938,0.17543 -1.09344,2.93834 -2.2214,6.1398 -1.12797,3.20146 -2.10753,5.96966 -2.1768,6.15157 -0.0978,0.25678 0.9095,0.33072 4.50522,0.33072 h 4.63117 z"
         id="path17-7" /><path
         style="fill:#1a3763;fill-opacity:1"
         d="m 387.37109,201.52338 c -4.35711,-0.51922 -7.77654,-2.84875 -9.38496,-6.39362 -1.27464,-2.80924 -1.32216,-2.70655 1.49554,-3.23216 1.356,-0.25295 2.66859,-0.51649 2.91686,-0.58563 0.33084,-0.0921 0.63013,0.227 1.12062,1.19494 1.1756,2.31994 3.12126,3.31157 6.49777,3.31166 3.42154,1e-4 5.29167,-1.28248 5.29167,-3.62917 0,-1.97074 -1.69327,-3.04723 -7.14375,-4.54159 -5.90344,-1.61856 -8.31065,-3.10062 -9.59691,-5.90858 -0.45064,-0.98377 -0.57037,-1.76021 -0.57885,-3.75386 -0.009,-2.17629 0.0829,-2.71305 0.68652,-4.0005 1.80497,-3.84946 5.34903,-5.79504 10.53701,-5.78449 5.63349,0.0115 9.54124,1.94027 11.37804,5.61603 1.14167,2.28469 1.09364,2.48501 -0.718,2.99467 -0.83675,0.23539 -2.10851,0.59591 -2.82615,0.80114 -1.69388,0.48442 -1.62135,0.49956 -2.00131,-0.41774 -0.45523,-1.09901 -2.1478,-2.55872 -3.3559,-2.89419 -1.41545,-0.39305 -3.9067,-0.35216 -4.94374,0.0811 -1.33993,0.55987 -2.0203,1.6005 -2.0203,3.0901 0,1.05414 0.13295,1.39983 0.79169,2.05857 0.79639,0.7964 1.05954,0.89773 8.03462,3.09405 6.46807,2.03667 9.08444,5.19955 8.51373,10.2921 -0.24353,2.17309 -0.91646,3.58593 -2.51095,5.27187 -1.75675,1.85751 -4.11197,2.9551 -7.14923,3.33173 -2.44464,0.30315 -2.51934,0.3032 -5.03402,0.004 z"
         id="path16-0" /><path
         style="fill:#1a3763;fill-opacity:1"
         d="m 292.38568,201.52738 c -4.29582,-0.58546 -7.46657,-2.73945 -9.13316,-6.20447 -1.30365,-2.71038 -1.26121,-2.94472 0.60035,-3.31512 0.83674,-0.16649 1.93807,-0.41239 2.44739,-0.54645 1.49671,-0.39394 1.7449,-0.30617 2.24023,0.79227 1.04529,2.31804 3.31361,3.53343 6.61857,3.54629 3.60619,0.014 5.91709,-1.53878 5.58574,-3.75334 -0.31279,-2.09047 -1.2626,-2.68709 -6.78973,-4.26494 -5.07043,-1.44747 -7.0615,-2.38598 -8.66989,-4.08661 -1.7222,-1.82097 -2.2616,-3.44907 -2.10858,-6.36446 0.30208,-5.75533 4.58524,-9.13465 11.57785,-9.13465 4.00598,0 6.98696,0.9535 9.1158,2.9158 1.18576,1.093 2.31611,3.06834 2.64753,4.62669 l 0.16921,0.79561 -2.84377,0.74796 c -1.73968,0.45756 -2.87867,0.64327 -2.93365,0.47831 -0.2823,-0.84689 -1.79234,-2.48862 -2.76566,-3.00685 -1.49241,-0.79462 -5.49649,-0.87782 -6.62608,-0.13769 -1.06504,0.69784 -1.55881,1.62399 -1.57904,2.96171 -0.0318,2.10602 0.63096,2.53495 6.57931,4.25775 5.00735,1.45026 6.69503,2.21451 8.4064,3.80679 1.86991,1.73978 2.53663,3.32156 2.53984,6.02576 0.004,2.95353 -0.68692,4.76885 -2.50544,6.58736 -1.54396,1.54396 -2.89067,2.3124 -5.0283,2.86919 -1.9488,0.50759 -5.41809,0.69294 -7.54492,0.40309 z"
         id="path15-9" /><path
         style="fill:#1a3763;fill-opacity:1"
         d="m 261.69402,201.51588 c -5.66484,-0.65545 -9.63931,-4.05376 -10.72316,-9.16866 -0.2944,-1.38933 -0.38118,-4.2259 -0.38474,-12.57575 l -0.005,-10.78177 h 3.28657 3.28656 l 0.10947,10.78177 c 0.11973,11.79217 0.1443,11.99162 1.70099,13.81027 1.20803,1.41131 2.8356,1.99948 5.52082,1.99512 2.78813,-0.005 4.37925,-0.75848 5.53055,-2.62065 0.76911,-1.24401 0.79074,-1.37571 0.97522,-5.93864 0.10377,-2.56653 0.19737,-7.73227 0.20799,-11.47943 l 0.0193,-6.81302 h 3.30729 3.3073 l -0.005,10.91406 c -0.005,12.09953 -0.12489,13.29785 -1.60735,16.07923 -1.41579,2.65631 -4.02533,4.66555 -6.99354,5.38477 -2.011,0.48727 -5.32208,0.66865 -7.5341,0.4127 z"
         id="path14-3" /><path
         style="fill:#1a3763;fill-opacity:1"
         d="m 345.03776,222.17095 v -5.29167 h 0.92604 c 0.87581,0 0.92604,0.0485 0.92604,0.89491 v 0.89492 l 1.0272,-1.02721 c 0.8606,-0.8606 1.20391,-1.0272 2.11667,-1.0272 h 1.08946 v 1.05833 1.05833 h -1.08447 c -0.86091,0 -1.23551,0.16169 -1.81712,0.78431 -0.90976,0.97389 -1.06716,1.74115 -1.06716,5.20189 v 2.74505 h -1.05833 -1.05833 z"
         id="path13-6" /><path
         style="fill:#1a3763;fill-opacity:1"
         d="m 289.21068,219.52511 v -7.9375 h 1.05833 1.05834 v 4.78446 4.78445 l 2.01186,-2.13862 c 1.99492,-2.12061 2.02298,-2.13862 3.33216,-2.13862 h 1.32029 l -2.01996,2.22495 -2.01997,2.22496 2.12739,2.92755 c 1.17007,1.61015 2.12739,2.99017 2.12739,3.06671 0,0.0765 -0.53603,0.13916 -1.19117,0.13916 -1.1565,0 -1.22617,-0.0481 -2.39381,-1.65364 -2.45209,-3.37164 -2.09179,-3.0455 -2.73147,-2.47254 -0.46999,0.42099 -0.56271,0.80242 -0.56271,2.31511 v 1.81107 h -1.05833 -1.05834 z"
         id="path12-0" /><path
         style="fill:#1a3763;fill-opacity:1"
         d="m 235.23569,219.75776 v -7.70486 l 3.24925,0.10817 c 2.61073,0.0869 3.45564,0.2147 4.29948,0.65027 2.46624,1.273 3.21777,4.37465 1.63561,6.75035 -0.8462,1.27062 -2.14803,1.8115 -4.8126,1.99954 l -2.28661,0.16137 0.0819,2.87055 0.0819,2.87054 -1.12448,-5.4e-4 -1.12448,-5.4e-4 z m 6.89952,-1.00604 c 0.60656,-0.60656 0.7734,-1.01049 0.7734,-1.87244 0,-0.86195 -0.16684,-1.26588 -0.7734,-1.87244 -0.71871,-0.71871 -0.91515,-0.77339 -2.77812,-0.77339 h -2.00473 v 2.64583 2.64583 h 2.00473 c 1.86297,0 2.05941,-0.0547 2.77812,-0.77339 z"
         id="path11-6" /><path
         style="fill:#1a3763;fill-opacity:1"
         d="m 379.56588,227.32897 c -1.02049,-0.36154 -2.24493,-1.53247 -2.24765,-2.14942 -7.2e-4,-0.16425 0.35093,-0.44453 0.78144,-0.62286 0.71605,-0.2966 0.83441,-0.26475 1.38906,0.37371 1.22137,1.40593 3.91361,1.05471 3.91361,-0.51056 0,-0.82386 -0.74189,-1.28355 -2.76265,-1.71183 -2.10841,-0.44685 -3.05819,-1.36969 -3.05819,-2.97144 0,-2.01699 1.41644,-3.19753 3.83646,-3.19753 1.62988,0 2.89599,0.6153 3.57977,1.73968 l 0.51366,0.84464 -0.98568,0.34125 c -0.68989,0.23885 -1.01444,0.25497 -1.08152,0.0537 -0.0527,-0.15815 -0.34427,-0.51898 -0.64791,-0.80186 -1.11029,-1.0344 -3.20418,-0.32481 -3.04707,1.03261 0.0846,0.73064 0.59201,0.98253 3.28698,1.63166 1.65376,0.39833 2.48281,1.37423 2.48281,2.9226 0,2.71507 -2.80529,4.14084 -5.95312,3.02564 z"
         id="path10-2" /><path
         style="fill:#1a3763;fill-opacity:1"
         d="m 367.59869,227.33487 c -0.94883,-0.41248 -1.92092,-1.79279 -1.92245,-2.72973 -0.003,-1.96753 1.90158,-3.24761 5.11822,-3.43963 l 2.07649,-0.12395 -0.16141,-0.80704 c -0.21682,-1.0841 -0.84372,-1.7241 -1.87909,-1.91833 -1.04276,-0.19562 -2.39535,0.43283 -2.64855,1.2306 -0.15251,0.4805 -0.30899,0.53199 -1.14323,0.37618 -0.5316,-0.0993 -1.00832,-0.22161 -1.05939,-0.27183 -0.28861,-0.28379 1.22954,-2.28242 2.01786,-2.6565 1.26128,-0.59852 3.7884,-0.56909 4.85675,0.0566 1.77822,1.04134 1.93996,1.53294 2.03888,6.19673 l 0.0894,4.21462 h -1.08158 c -0.99609,0 -1.08158,-0.0559 -1.08158,-0.70758 v -0.70758 l -0.59531,0.55767 c -1.20624,1.12995 -3.03921,1.41919 -4.625,0.72981 z m 4.17813,-2.19092 c 0.58725,-0.52471 0.83118,-0.99154 0.86407,-1.65364 l 0.0458,-0.92255 -1.5875,0.0956 c -1.72033,0.10359 -2.88309,0.56203 -3.14294,1.23918 -0.25595,0.66701 -0.20333,0.87521 0.36482,1.44336 0.80786,0.80786 2.43177,0.71297 3.45573,-0.20194 z"
         id="path9-6" /><path
         style="fill:#1a3763;fill-opacity:1"
         d="m 355.69444,227.43299 c -1.13329,-0.32751 -2.55963,-1.83414 -2.94079,-3.10632 -0.71301,-2.3798 -0.14275,-5.23718 1.31118,-6.56993 1.46441,-1.34235 4.28216,-1.57631 5.88496,-0.48862 l 0.96296,0.65349 v -3.16703 -3.16703 h 1.05834 1.05833 v 7.95347 7.95348 l -0.99219,-0.0821 c -0.9161,-0.0758 -0.98773,-0.14112 -0.93408,-0.85152 l 0.0581,-0.7694 -0.73948,0.70846 c -1.17733,1.12795 -2.88599,1.4652 -4.72734,0.93307 z m 3.8954,-2.3141 c 0.93351,-0.68514 1.31451,-1.55957 1.31901,-3.02729 0.007,-2.30454 -1.12462,-3.62488 -3.10698,-3.62488 -1.39288,0 -2.3984,0.61671 -2.87834,1.76537 -1.48567,3.55572 1.79655,6.99303 4.66631,4.8868 z"
         id="path8-1" /><path
         style="fill:#1a3763;fill-opacity:1"
         d="m 335.36627,227.07019 c -2.28999,-1.14951 -3.34672,-3.54725 -2.77566,-6.29801 0.3298,-1.58863 1.44272,-3.13148 2.74752,-3.80892 1.06608,-0.5535 3.49769,-0.56401 4.54025,-0.0196 1.6682,0.87107 2.77813,2.74198 2.77813,4.68286 v 1.06012 l -4.06991,0.0729 -4.06991,0.0729 0.29959,0.91688 c 0.39068,1.19562 1.76612,2.12583 3.14331,2.12583 0.84129,0 1.22578,-0.18011 1.96717,-0.9215 0.89649,-0.89649 0.94257,-0.91061 1.69777,-0.52007 0.88613,0.45823 0.79824,0.8351 -0.46661,2.00088 -1.5438,1.42289 -3.74279,1.66431 -5.79165,0.63583 z m 5.0459,-6.70294 c -0.41881,-1.68792 -2.22937,-2.51398 -3.94186,-1.79846 -0.82414,0.34435 -1.7513,1.53267 -1.7513,2.2446 0,0.14968 1.22058,0.25783 2.93465,0.26002 l 2.93466,0.004 z"
         id="path7-8" /><path
         style="fill:#1a3763;fill-opacity:1"
         d="m 321.75271,227.47992 c -1.91505,-0.58253 -3.46713,-1.94768 -4.53193,-3.98612 -0.86073,-1.64777 -0.89565,-5.36257 -0.0673,-7.15719 1.32209,-2.86423 3.48506,-4.28243 6.58529,-4.31778 2.72353,-0.0311 4.52956,0.82054 5.97665,2.81819 0.42362,0.58479 0.77022,1.14448 0.77022,1.24376 0,0.0993 -0.44189,0.31611 -0.98199,0.48187 -0.94881,0.2912 -1.00773,0.27016 -1.7436,-0.62258 -2.40527,-2.91801 -6.86685,-2.35599 -8.41875,1.0605 -0.60621,1.33456 -0.65022,4.02763 -0.0878,5.37364 1.15442,2.76292 4.17994,3.96416 6.88733,2.73452 0.96477,-0.43817 2.04541,-1.46353 2.27807,-2.16153 0.0491,-0.14742 0.55249,-0.0719 1.19015,0.1786 l 1.10499,0.43405 -0.66431,1.00385 c -0.75628,1.14282 -2.24373,2.25572 -3.71749,2.78139 -1.08835,0.38821 -3.512,0.45957 -4.57954,0.13483 z"
         id="path6-7" /><path
         style="fill:#1a3763;fill-opacity:1"
         d="m 301.49136,227.35105 c -1.08249,-0.47132 -1.96193,-1.62922 -1.96193,-2.58315 0,-2.09936 1.78575,-3.36372 5.06864,-3.58873 l 2.12544,-0.14568 -0.15717,-0.82037 c -0.17538,-0.91538 -1.25688,-2.01098 -1.9851,-2.01098 -0.94863,0 -2.07362,0.56961 -2.42623,1.22846 -0.30839,0.57623 -0.49132,0.65278 -1.26134,0.52782 -0.49535,-0.0804 -0.95965,-0.20517 -1.03178,-0.2773 -0.22312,-0.22311 0.82058,-1.79253 1.55715,-2.34152 1.42403,-1.06136 4.30317,-1.0658 5.74578,-0.009 1.3782,1.00976 1.62416,1.95287 1.62461,6.2292 l 4.1e-4,3.9026 h -1.05833 c -0.97089,0 -1.05833,-0.0585 -1.05833,-0.70758 v -0.70758 l -0.59531,0.55767 c -1.1949,1.11932 -3.03986,1.4194 -4.58651,0.74599 z m 4.11997,-2.2036 c 0.43922,-0.40018 0.8727,-1.11456 0.96329,-1.5875 l 0.1647,-0.8599 h -1.4488 c -1.73725,0 -3.03223,0.40882 -3.38543,1.06877 -0.37352,0.69794 -0.32485,0.98204 0.27017,1.57707 0.80761,0.8076 2.43504,0.71362 3.43607,-0.19844 z"
         id="path5-9" /><path
         style="fill:#1a3763;fill-opacity:1"
         d="m 278.75426,227.2323 c -1.17376,-0.53321 -1.7144,-1.41766 -1.7144,-2.8046 0,-1.92959 2.287,-3.31515 5.47198,-3.31515 1.37515,0 1.40717,-0.0174 1.40717,-0.76444 0,-1.28739 -0.81318,-2.01368 -2.25457,-2.01368 -1.07942,0 -1.33775,0.11348 -1.96285,0.86226 -0.6208,0.74361 -0.83524,0.83918 -1.5585,0.69453 -0.99862,-0.19972 -1.08964,-0.76947 -0.28612,-1.79098 0.8229,-1.04615 1.99435,-1.54011 3.69035,-1.55608 1.88637,-0.0178 3.32912,0.6788 4.0011,1.93179 0.41233,0.76885 0.48726,1.52962 0.48726,4.94758 v 4.03902 h -0.92604 c -0.82749,0 -0.92604,-0.0753 -0.92604,-0.70758 v -0.70758 l -0.59532,0.55767 c -1.27447,1.19387 -3.07298,1.42723 -4.83402,0.62724 z m 4.39136,-2.13064 c 0.5656,-0.56561 0.77339,-1.02687 0.77339,-1.7168 v -0.9434 l -1.38906,0.14403 c -1.78162,0.18474 -2.3401,0.34752 -2.91041,0.84832 -1.14355,1.00418 -0.12348,2.44124 1.73286,2.44124 0.7744,0 1.20595,-0.18612 1.79322,-0.77339 z"
         id="path4-2" /><path
         style="fill:#1a3763;fill-opacity:1"
         d="m 271.80443,227.34233 c -1.31578,-0.59259 -1.64374,-1.67549 -1.64374,-5.42753 v -3.1835 h -1.05833 c -1.03314,0 -1.05834,-0.0221 -1.05834,-0.92604 0,-0.90399 0.0252,-0.92604 1.05834,-0.92604 h 1.05833 v -1.45521 -1.45521 h 1.05833 1.05834 v 1.45521 1.45521 h 1.32291 1.32292 v 0.92604 0.92604 h -1.32292 -1.32291 v 3.12443 c 0,3.62493 0.22311,4.1996 1.52905,3.93841 0.74293,-0.14859 0.83023,-0.0923 0.99092,0.63936 0.0969,0.44127 0.11519,0.86334 0.0406,0.93793 -0.3443,0.3443 -2.24488,0.32607 -3.0335,-0.0291 z"
         id="path3-0" /><path
         style="fill:#1a3763;fill-opacity:1"
         d="m 260.95814,227.39493 c -0.8149,-0.26115 -2.43912,-1.79067 -2.43912,-2.29691 0,-0.12622 0.38405,-0.36338 0.85345,-0.52701 0.73795,-0.25725 0.90802,-0.22914 1.25677,0.20774 0.9392,1.17653 2.8146,1.46319 3.71062,0.56718 1.13259,-1.13259 0.49696,-1.87304 -2.16866,-2.52629 -2.3811,-0.58352 -3.38759,-1.44592 -3.38759,-2.90264 0,-2.03433 1.52008,-3.37792 3.82163,-3.37792 1.66851,0 3.06383,0.62524 3.66447,1.64205 0.576,0.97508 0.57344,0.99138 -0.18548,1.18186 -0.35028,0.0879 -0.82653,0.23262 -1.05833,0.32157 -0.27387,0.10509 -0.42146,0.0181 -0.42146,-0.24845 0,-0.5538 -1.02085,-1.23393 -1.85208,-1.23393 -0.95601,0 -1.85209,0.70681 -1.85209,1.4609 0,0.75763 0.52428,1.07736 2.42708,1.48013 1.933,0.40916 2.78008,0.89056 3.28496,1.8669 1.47501,2.85236 -2.00787,5.55334 -5.65417,4.38482 z"
         id="path2-2" /><path
         style="fill:#1a3763;fill-opacity:1"
         d="m 249.06538,227.33493 c -1.65353,-0.71884 -1.92134,-1.59485 -1.92245,-6.28846 l -9.9e-4,-4.16719 h 1.03927 1.03927 l 0.0852,3.96004 c 0.0977,4.54083 0.24631,4.89147 2.07302,4.89147 0.79757,0 1.23239,-0.1773 1.7825,-0.72685 0.71434,-0.71359 0.72918,-0.79431 0.81375,-4.42575 l 0.0861,-3.69891 h 1.03834 1.03833 v 5.29167 5.29166 h -0.92604 c -0.8681,0 -0.92612,-0.0538 -0.92735,-0.85989 l -0.001,-0.8599 -0.594,0.71924 c -1.03242,1.2501 -2.93134,1.60858 -4.62369,0.87287 z"
         id="path1-3" /></g></g></svg>
