<?xml version="1.0" encoding="UTF-8" standalone="no"?>
<!-- Created with Inkscape (http://www.inkscape.org/) -->

<svg
   width="125.38889mm"
   height="124.61792mm"
   viewBox="0 0 125.38889 124.61792"
   version="1.1"
   id="svg1"
   xml:space="preserve"
   xmlns="http://www.w3.org/2000/svg"
   xmlns:svg="http://www.w3.org/2000/svg"><defs
     id="defs1" /><g
     id="layer1"
     transform="translate(-242.73896,-13.439682)"><path
       d="m 291.96404,49.98291 a 53.091979,53.091979 0 0 0 -28.71479,-8.38454 53.245123,53.245123 0 0 0 -17.7756,3.03546 4.1020897,4.1020897 0 0 0 -2.73469,3.8669 v 77.93965 a 4.1020897,4.1020897 0 0 0 5.46938,3.8669 45.051883,45.051883 0 0 1 15.04091,-2.56519 c 10.91169,0 20.90989,3.8669 28.71479,10.31551 z m 8.20407,88.07469 a 44.926086,44.926086 0 0 1 28.71458,-10.31551 c 5.28354,0 10.33742,0.9075 15.04111,2.57077 a 4.1020897,4.1020897 0 0 0 5.46939,-3.87248 V 48.50073 a 4.1020897,4.1020897 0 0 0 -2.73469,-3.8669 53.245123,53.245123 0 0 0 -17.77581,-3.03546 53.091979,53.091979 0 0 0 -28.71458,8.38454 z"
       id="path1-5"
       style="fill:#1a3763;fill-opacity:1;stroke-width:5.46945" /><g
       id="g39"
       transform="translate(30.039847,-5.3642583)"><path
         style="fill:#1c9cf0;fill-opacity:1"
         d="m 324.3592,32.495916 c -0.55549,-0.591291 -0.57529,-0.817345 -0.57529,-6.568462 0,-7.811959 -0.71264,-7.106672 7.18083,-7.106672 7.81376,0 7.10667,-0.717145 7.10667,7.207745 v 5.983014 l -0.69714,0.54837 c -0.6577,0.517353 -1.02923,0.54837 -6.56846,0.54837 -5.79512,0 -5.87879,-0.0079 -6.44661,-0.612365 z"
         id="path37-1" /><path
         style="fill:#1c9cf0;fill-opacity:1"
         d="m 307.55068,41.455289 -0.7001,-0.648824 v -5.024963 c 0,-4.928918 0.0122,-5.039152 0.63794,-5.767321 l 0.63795,-0.742358 4.42259,-0.08439 c 3.03002,-0.05782 4.66532,0.01615 5.19343,0.234902 1.45295,0.601831 1.54351,0.970206 1.54351,6.27871 v 4.856272 l -0.7734,0.773398 -0.7734,0.773397 h -4.74421 c -4.66915,0 -4.7553,-0.01027 -5.44431,-0.648825 z"
         id="path38-5" /><path
         style="fill:#1c9cf0;fill-opacity:1"
         d="m 327.48808,49.247864 c -0.47201,-0.472014 -0.52917,-0.881945 -0.52917,-3.795451 0,-4.296853 -0.17079,-4.142049 4.5699,-4.142049 4.54717,0 4.42594,-0.115956 4.42594,4.233333 0,4.34382 0.11433,4.233333 -4.38063,4.233333 -3.20409,0 -3.60936,-0.05248 -4.08604,-0.529166 z"
         id="path39-9" /></g></g></svg>
